<?xml version="1.0" encoding="utf-8" ?>
<svg baseProfile="full" height="2000px" version="1.1" viewBox="0 0 2000 2000" width="2000px" xmlns="http://www.w3.org/2000/svg" xmlns:ev="http://www.w3.org/2001/xml-events" xmlns:xlink="http://www.w3.org/1999/xlink"><defs /><g fill="black" stroke="none"><path d="M 1603 1185 L 1507 1136 L 1358 1083 L 1210 1050 L 1049 1035 L 1039 1020 L 1046 979 L 1086 914 L 1062 990 L 1108 976 L 1133 944 L 1139 887 L 1128 833 L 1006 921 L 978 982 L 973 1034 L 913 1035 L 928 1013 L 914 927 L 944 994 L 964 972 L 966 944 L 941 894 L 892 847 L 867 934 L 874 969 L 908 1004 L 892 1036 L 650 1083 L 406 1184 L 749 1101 L 1052 1083 L 1334 1111 Z" /><path d="M 1285 733 L 1000 546 L 721 733 L 706 860 L 704 1042 L 759 1027 L 761 860 L 771 761 L 1004 608 L 1233 761 L 1245 875 L 1247 1027 L 1295 1044 L 1300 903 Z" /><path d="M 620 1196 L 818 1160 L 997 1148 L 1234 1156 L 1367 1171 L 1489 1192 L 1359 1150 L 1251 1128 L 1137 1115 L 993 1113 L 920 1118 L 809 1136 L 717 1160 Z" /><path d="M 1003 675 L 999 677 L 988 699 L 968 727 L 948 761 L 940 791 L 941 821 L 951 846 L 973 871 L 999 886 L 1003 884 L 998 856 L 998 808 L 1006 766 L 1008 766 L 1007 802 L 1009 822 L 1023 874 L 1025 875 L 1039 867 L 1055 851 L 1063 836 L 1068 815 L 1066 781 L 1058 758 Z" /><path d="M 1632 1252 L 1598 1252 L 1597 1310 L 1587 1301 L 1578 1296 L 1565 1293 L 1555 1293 L 1533 1300 L 1516 1316 L 1510 1327 L 1506 1340 L 1506 1372 L 1513 1391 L 1520 1401 L 1530 1410 L 1549 1418 L 1571 1418 L 1585 1412 L 1597 1400 L 1598 1416 L 1632 1416 Z" /><path d="M 723 1296 L 723 1416 L 757 1416 L 757 1343 L 762 1331 L 775 1324 L 789 1327 L 797 1338 L 798 1416 L 832 1416 L 833 1340 L 842 1327 L 850 1324 L 863 1326 L 872 1337 L 873 1416 L 908 1416 L 907 1326 L 902 1311 L 889 1298 L 872 1293 L 855 1294 L 842 1299 L 827 1312 L 817 1300 L 804 1294 L 779 1295 L 758 1311 L 757 1296 Z" /><path d="M 1049 1258 L 1020 1272 L 1000 1294 L 991 1315 L 988 1332 L 993 1368 L 1007 1392 L 1020 1404 L 1039 1414 L 1060 1419 L 1083 1419 L 1108 1413 L 1139 1394 L 1139 1326 L 1070 1326 L 1070 1355 L 1105 1356 L 1105 1378 L 1095 1384 L 1077 1388 L 1055 1385 L 1044 1379 L 1034 1369 L 1025 1348 L 1025 1327 L 1036 1304 L 1053 1291 L 1062 1288 L 1085 1289 L 1098 1294 L 1111 1304 L 1133 1277 L 1121 1268 L 1096 1258 L 1085 1256 Z" /><path d="M 1300 1303 L 1299 1305 L 1308 1330 L 1327 1324 L 1351 1324 L 1358 1327 L 1364 1333 L 1367 1340 L 1367 1346 L 1364 1347 L 1350 1343 L 1326 1343 L 1311 1347 L 1302 1352 L 1293 1362 L 1289 1373 L 1289 1390 L 1297 1406 L 1312 1416 L 1326 1419 L 1335 1419 L 1349 1416 L 1360 1410 L 1366 1404 L 1367 1416 L 1400 1416 L 1400 1339 L 1398 1327 L 1391 1312 L 1383 1304 L 1372 1298 L 1354 1294 L 1327 1295 Z" /><path d="M 511 1304 L 520 1330 L 539 1324 L 563 1324 L 575 1331 L 579 1339 L 579 1346 L 576 1347 L 562 1343 L 539 1343 L 523 1347 L 513 1353 L 506 1361 L 501 1375 L 501 1388 L 507 1403 L 518 1413 L 527 1417 L 538 1419 L 554 1418 L 564 1415 L 578 1405 L 579 1416 L 612 1416 L 612 1336 L 609 1323 L 600 1308 L 587 1299 L 566 1294 L 539 1295 Z" /><path d="M 490 1258 L 371 1258 L 371 1416 L 405 1416 L 406 1355 L 481 1355 L 481 1324 L 406 1324 L 405 1291 L 491 1290 Z" /><path d="M 1161 1296 L 1161 1381 L 1165 1397 L 1169 1404 L 1182 1415 L 1191 1418 L 1206 1419 L 1222 1414 L 1237 1400 L 1238 1416 L 1272 1416 L 1272 1296 L 1238 1296 L 1237 1372 L 1234 1379 L 1229 1384 L 1219 1388 L 1205 1385 L 1200 1381 L 1196 1373 L 1195 1296 Z" /><path d="M 740 553 L 741 584 L 743 587 L 743 593 L 746 602 L 748 604 L 749 610 L 760 629 L 778 647 L 793 656 L 800 656 L 814 646 L 816 646 L 818 643 L 818 640 L 816 639 L 816 637 L 808 626 L 796 614 L 795 611 L 790 606 L 791 605 L 816 623 L 827 635 L 831 635 L 838 631 L 846 624 L 845 617 L 841 611 L 841 608 L 838 603 L 829 593 L 822 589 L 818 585 L 792 573 L 786 572 L 784 570 L 779 570 L 777 568 L 774 568 L 764 564 L 751 557 L 744 551 L 742 551 Z" /><path d="M 708 1293 L 695 1294 L 686 1298 L 678 1305 L 670 1318 L 669 1317 L 669 1296 L 635 1296 L 635 1416 L 669 1416 L 669 1367 L 672 1351 L 677 1342 L 684 1335 L 695 1330 L 708 1329 Z" /><path d="M 1496 1293 L 1483 1294 L 1472 1299 L 1465 1306 L 1458 1317 L 1457 1316 L 1457 1296 L 1423 1296 L 1423 1416 L 1457 1416 L 1457 1364 L 1458 1363 L 1458 1357 L 1462 1346 L 1472 1335 L 1483 1330 L 1496 1329 Z" /><path d="M 809 457 L 798 483 L 798 487 L 796 490 L 796 493 L 793 501 L 793 507 L 791 511 L 791 529 L 796 544 L 800 550 L 813 562 L 820 566 L 826 567 L 828 565 L 827 547 L 826 546 L 826 521 L 827 520 L 830 527 L 831 534 L 833 536 L 835 546 L 838 551 L 840 565 L 842 567 L 844 567 L 848 565 L 858 555 L 861 547 L 863 546 L 863 539 L 864 538 L 863 521 L 861 519 L 861 515 L 856 507 L 856 505 L 853 502 L 853 500 L 848 493 L 841 487 L 839 483 L 821 465 L 817 463 L 813 458 Z" /><path d="M 919 517 L 916 519 L 915 522 L 913 524 L 911 528 L 904 535 L 901 536 L 894 543 L 889 546 L 876 559 L 876 561 L 874 563 L 873 567 L 871 569 L 870 573 L 868 576 L 868 591 L 870 595 L 870 598 L 871 600 L 873 601 L 873 603 L 875 605 L 878 605 L 888 598 L 890 598 L 894 594 L 895 592 L 895 589 L 896 588 L 896 584 L 898 582 L 898 579 L 901 576 L 901 574 L 902 573 L 903 574 L 903 578 L 902 579 L 902 587 L 903 588 L 906 588 L 913 583 L 919 580 L 920 578 L 922 578 L 928 571 L 928 569 L 930 565 L 930 552 L 929 551 L 929 546 L 928 545 L 928 540 L 926 536 L 926 532 L 923 527 L 923 524 L 921 522 L 921 520 Z" /><path d="M 1132 1484 L 1132 1543 L 1160 1543 L 1161 1542 L 1164 1542 L 1165 1541 L 1167 1541 L 1171 1538 L 1172 1538 L 1174 1536 L 1175 1536 L 1180 1530 L 1180 1529 L 1183 1524 L 1183 1522 L 1184 1521 L 1184 1506 L 1183 1505 L 1183 1503 L 1182 1502 L 1180 1497 L 1177 1494 L 1177 1493 L 1176 1492 L 1175 1492 L 1172 1489 L 1171 1489 L 1164 1485 L 1161 1485 L 1160 1484 Z" /><path d="M 721 642 L 721 656 L 722 657 L 722 659 L 723 660 L 723 662 L 724 663 L 724 666 L 726 669 L 726 671 L 728 673 L 728 675 L 736 683 L 737 683 L 739 685 L 740 685 L 741 686 L 743 686 L 746 688 L 756 688 L 757 687 L 758 687 L 759 686 L 762 685 L 764 683 L 766 683 L 771 678 L 771 677 L 773 675 L 773 671 L 771 668 L 771 666 L 770 665 L 769 662 L 761 654 L 760 654 L 758 652 L 754 652 L 751 650 L 742 650 L 739 648 L 735 648 L 734 647 L 733 647 L 732 646 L 731 646 L 730 645 L 727 644 L 724 641 L 722 641 Z" /><path d="M 942 1483 L 940 1487 L 940 1489 L 935 1498 L 935 1500 L 930 1509 L 930 1511 L 926 1518 L 926 1520 L 921 1529 L 921 1531 L 915 1543 L 922 1543 L 926 1535 L 926 1533 L 929 1528 L 961 1528 L 963 1530 L 963 1532 L 966 1537 L 966 1539 L 968 1543 L 975 1543 L 975 1541 L 970 1532 L 970 1530 L 965 1521 L 965 1519 L 960 1510 L 960 1508 L 956 1501 L 956 1499 L 951 1490 L 951 1488 L 949 1484 L 948 1483 Z" /><path d="M 1260 1483 L 1255 1492 L 1255 1494 L 1250 1503 L 1250 1505 L 1245 1514 L 1245 1516 L 1241 1523 L 1241 1525 L 1232 1543 L 1239 1543 L 1241 1540 L 1241 1538 L 1246 1528 L 1278 1528 L 1280 1530 L 1282 1534 L 1282 1536 L 1285 1542 L 1286 1543 L 1293 1543 L 1290 1538 L 1290 1536 L 1285 1527 L 1285 1525 L 1280 1516 L 1280 1514 L 1275 1505 L 1275 1503 L 1271 1496 L 1271 1494 L 1266 1484 L 1265 1483 Z" /><path d="M 1026 1484 L 1026 1543 L 1032 1543 L 1032 1496 L 1033 1495 L 1071 1543 L 1076 1543 L 1076 1484 L 1070 1484 L 1070 1529 L 1069 1530 L 1033 1484 Z" /><path d="M 829 1485 L 824 1488 L 818 1494 L 813 1504 L 812 1508 L 812 1520 L 816 1531 L 822 1538 L 831 1543 L 835 1544 L 850 1544 L 862 1539 L 866 1536 L 866 1512 L 842 1512 L 842 1518 L 859 1518 L 860 1519 L 860 1532 L 852 1537 L 844 1538 L 843 1539 L 836 1538 L 829 1535 L 823 1529 L 819 1520 L 819 1508 L 822 1500 L 827 1494 L 836 1489 L 848 1489 L 859 1495 L 864 1491 L 864 1490 L 858 1486 L 849 1483 L 835 1483 Z" /><path d="M 710 1484 L 710 1523 L 711 1524 L 712 1531 L 715 1536 L 722 1542 L 724 1542 L 728 1544 L 742 1544 L 751 1540 L 755 1536 L 758 1530 L 759 1523 L 760 1522 L 760 1484 L 753 1484 L 753 1525 L 752 1526 L 752 1528 L 745 1536 L 741 1538 L 729 1538 L 725 1536 L 719 1530 L 717 1525 L 717 1484 Z" /></g></svg>